<svg width="16" height="16" viewBox="0 0 16 16" fill="none" xmlns="http://www.w3.org/2000/svg">
<path fill-rule="evenodd" clip-rule="evenodd" d="M10.5 5.00023C10.5 5.66327 10.2366 6.29915 9.76777 6.76799C9.29893 7.23684 8.66304 7.50023 8 7.50023C7.33696 7.50023 6.70108 7.23684 6.23224 6.76799C5.76339 6.29915 5.5 5.66327 5.5 5.00023C5.5 4.33719 5.76339 3.7013 6.23224 3.23246C6.70108 2.76362 7.33696 2.50023 8 2.50023C8.66304 2.50023 9.29893 2.76362 9.76777 3.23246C10.2366 3.7013 10.5 4.33719 10.5 5.00023ZM10.561 8.07323C11.1923 7.54687 11.6461 6.83881 11.8608 6.04537C12.0754 5.25192 12.0403 4.41163 11.7604 3.63881C11.4805 2.86599 10.9693 2.19816 10.2964 1.72617C9.62345 1.25419 8.82145 1.00098 7.9995 1.00098C7.17755 1.00098 6.37555 1.25419 5.70262 1.72617C5.02969 2.19816 4.51849 2.86599 4.23859 3.63881C3.95868 4.41163 3.92364 5.25192 4.13825 6.04537C4.35286 6.83881 4.80669 7.54687 5.438 8.07323C4.45359 8.53863 3.61427 9.26298 3.0099 10.1687C2.40553 11.0745 2.05886 12.1275 2.007 13.2152C2.00218 13.4112 2.07428 13.6013 2.20788 13.7447C2.34147 13.8882 2.52593 13.9737 2.72177 13.9828C2.9176 13.992 3.10923 13.9241 3.25562 13.7937C3.40201 13.6633 3.49153 13.4808 3.505 13.2852C3.55952 12.1297 4.0569 11.0396 4.89391 10.2412C5.73091 9.44276 6.84324 8.9973 8 8.9973C9.15676 8.9973 10.2691 9.44276 11.1061 10.2412C11.9431 11.0396 12.4405 12.1297 12.495 13.2852C12.4975 13.3851 12.5198 13.4834 12.5608 13.5745C12.6018 13.6656 12.6606 13.7476 12.7337 13.8156C12.8068 13.8837 12.8928 13.9365 12.9865 13.9709C13.0803 14.0053 13.18 14.0206 13.2798 14.0159C13.3796 14.0113 13.4774 13.9867 13.5676 13.9437C13.6577 13.9007 13.7384 13.8402 13.8048 13.7656C13.8713 13.691 13.9221 13.6039 13.9544 13.5094C13.9868 13.4149 13.9999 13.3148 13.993 13.2152C13.941 12.1274 13.5942 11.0743 12.9897 10.1685C12.3851 9.26278 11.5456 8.53849 10.561 8.07323Z" fill="currenColor"/>
</svg>
